<svg
    className="w-full sm:w-[150px]"
    viewBox="0 0 162 88"
    fill="none"
    xmlns="http://www.w3.org/2000/svg"
>
    <defs>
        <!-- Clip for the left half, keeping the outer rounded corners on the left -->
        <clipPath id="clip_left">
            <rect x="0.242188" y="0" width="80.7578" height="88" />
        </clipPath>
        <!-- Clip for the right half, keeping the outer rounded corners on the right -->
        <clipPath id="clip_right">
            <rect x="81" y="0" width="81.5" height="88" />
        </clipPath>
        
        <!-- Masks and clips from light.svg -->
        <mask id="path-3-inside-1_701_65608" fill="white">
            <path d="M0.242188 6C0.242188 2.68629 2.92848 0 6.24219 0H13.2422V88H6.24219C2.92848 88 0.242188 85.3137 0.242188 82V6Z"></path>
        </mask>
        <mask id="path-5-inside-2_701_65608" fill="white">
            <path d="M155.742 -2.62268e-07C159.056 -1.17421e-07 161.742 2.68629 161.742 6L161.742 13L13.2422 13L13.2422 -6.49114e-06L155.742 -2.62268e-07Z"></path>
        </mask>
        <clipPath id="clip0_701_65608">
            <rect x="0.242188" width="161.5" height="88" rx="6" fill="white"></rect>
        </clipPath>

        <!-- Masks and clips from dark.svg -->
        <mask id="path-3-inside-1_701_65549" fill="white">
            <path d="M0.742188 6C0.742188 2.68629 3.42848 0 6.74219 0H13.7422V88H6.74219C3.42848 88 0.742188 85.3137 0.742188 82V6Z"></path>
        </mask>
        <mask id="path-5-inside-2_701_65549" fill="white">
            <path d="M156.242 -2.62268e-07C159.556 -1.17421e-07 162.242 2.68629 162.242 6L162.242 13L13.7422 13L13.7422 -6.49114e-06L156.242 -2.62268e-07Z"></path>
        </mask>
        <clipPath id="clip0_701_65549">
            <rect x="0.742188" width="161.5" height="88" rx="6" fill="white"></rect>
        </clipPath>
    </defs>

    <!-- Outer group for Left Half (Light Theme) -->
    <g clip-path="url(#clip_left)">
        <g clipPath="url(#clip0_701_65608)">
            <rect x="0.242188" width="161.5" height="88" rx="6" fill="#F8F9FA" />
            <path d="M0.242188 6C0.242188 2.68629 2.92848 0 6.24219 0H13.2422V88H6.24219C2.92848 88 0.242188 85.3137 0.242188 82V6Z" fill="#F8F9FA" />
            <path d="M0.242188 0H13.2422H0.242188ZM13.2422 88H0.242188H13.2422ZM0.242188 88V0V88ZM14.2422 0V88H12.2422V0H14.2422Z" fill="#E6E8EB" mask="url(#path-3-inside-1_701_65608)" />
            <path d="M155.742 -2.62268e-07C159.056 -1.17421e-07 161.742 2.68629 161.742 6L161.742 13L13.2422 13L13.2422 -6.49114e-06L155.742 -2.62268e-07Z" fill="#F8F9FA" />
            <path d="M161.742 0L161.742 13L161.742 0ZM13.2422 13L13.2422 -6.49114e-06L13.2422 13ZM13.2422 -6.49114e-06L161.742 0L13.2422 -6.49114e-06ZM161.742 14L13.2422 14L13.2422 12L161.742 12L161.742 14Z" fill="#E6E8EB" mask="url(#path-5-inside-2_701_65608)" />
            <rect x="44.2552" y="21.5" width="86.4738" height="23.5" rx="2.5" fill="#FCFCFC" stroke="#E6E8EB" />
            <rect x="44.2552" y="51.5" width="86.4738" height="23.5" rx="2.5" fill="#FCFCFC" stroke="#E6E8EB" />
            <rect x="52.4406" y="28" width="19.2318" height="1.5" rx="0.75" fill="#525252" />
            <rect x="52.4406" y="56.5" width="19.2318" height="1.5" rx="0.75" fill="#525252" />
            <rect x="77.8762" y="28" width="19.2318" height="1.5" rx="0.75" fill="#11181C" />
            <rect x="77.8762" y="56.5" width="19.2318" height="1.5" rx="0.75" fill="#11181C" />
            <rect x="77.8762" y="33.25" width="44.0471" height="1.5" rx="0.75" fill="#11181C" />
            <rect x="77.8762" y="61.75" width="44.0471" height="1.5" rx="0.75" fill="#11181C" />
            <rect x="17.9922" y="4.625" width="20.5" height="3.75" rx="1.875" fill="#3FCF8E" />
            <rect x="43.7552" y="4.625" width="20.5" height="3.75" rx="1.875" fill="#B2B2B2" />
            <rect x="69.0052" y="4.625" width="20.5" height="3.75" rx="1.875" fill="#B2B2B2" />
            <rect x="101.423" y="28" width="20.5" height="1.5" rx="0.75" fill="#FFB224" />
            <rect x="4.86719" y="4.625" width="3.75" height="3.75" rx="1" fill="#B2B2B2" />
            <rect x="4.86719" y="13.375" width="3.75" height="3.75" rx="1" fill="#B2B2B2" />
            <rect x="4.86719" y="20.875" width="3.75" height="3.75" rx="1" fill="#B2B2B2" />
            <rect x="4.86719" y="28.375" width="3.75" height="3.75" rx="1" fill="#B2B2B2" />
            <rect x="4.86719" y="35.875" width="3.75" height="3.75" rx="1" fill="#B2B2B2" />
            <rect x="4.86719" y="78.875" width="3.75" height="3.75" rx="1" fill="#B2B2B2" />
        </g>
    </g>

    <!-- Outer group for Right Half (Dark Theme) -->
    <g clip-path="url(#clip_right)">
        <g clipPath="url(#clip0_701_65549)">
            <rect x="0.742188" width="161.5" height="88" rx="6" fill="#121212" />
            <path d="M0.742188 6C0.742188 2.68629 3.42848 0 6.74219 0H13.7422V88H6.74219C3.42848 88 0.742188 85.3137 0.742188 82V6Z" fill="#121212" />
            <path d="M0.742188 0H13.7422H0.742188ZM13.7422 88H0.742188H13.7422ZM0.742188 88V0V88ZM14.7422 0V88H12.7422V0H14.7422Z" fill="#292929" mask="url(#path-3-inside-1_701_65549)" />
            <path d="M156.242 -2.62268e-07C159.056 -1.17421e-07 162.242 2.68629 162.242 6L162.242 13L13.7422 13L13.7422 -6.49114e-06L156.242 -2.62268e-07Z" fill="#121212" />
            <path d="M162.242 0L162.242 13L162.242 0ZM13.7422 13L13.7422 -6.49114e-06L13.2422 13ZM13.7422 -6.49114e-06L162.242 0L13.7422 -6.49114e-06ZM162.242 14L13.7422 14L13.7422 12L162.242 12L162.242 14Z" fill="#292929" mask="url(#path-5-inside-2_701_65549)" />
            <rect x="44.7552" y="21.5" width="86.4738" height="23.5" rx="2.5" fill="#1F1F1F" stroke="#292929" />
            <rect x="44.7552" y="51.5" width="86.4738" height="23.5" rx="2.5" fill="#1F1F1F" stroke="#292929" />
            <rect x="52.9406" y="28" width="19.2318" height="1.5" rx="0.75" fill="#B4B4B4" />
            <rect x="52.9406" y="56.5" width="19.2318" height="1.5" rx="0.75" fill="#B4B4B4" />
            <rect x="78.3762" y="28" width="19.2318" height="1.5" rx="0.75" fill="#FAFAFA" />
            <rect x="78.3762" y="56.5" width="19.2318" height="1.5" rx="0.75" fill="#FAFAFA" />
            <rect x="78.3762" y="33.25" width="44.0471" height="1.5" rx="0.75" fill="#FAFAFA" />
            <rect x="78.3762" y="61.75" width="44.0471" height="1.5" rx="0.75" fill="#FAFAFA" />
            <rect x="18.4922" y="4.625" width="20.5" height="3.75" rx="1.875" fill="#3ECF8E" />
            <rect x="44.2552" y="4.625" width="20.5" height="3.75" rx="1.875" fill="#4D4D4D" />
            <rect x="69.5052" y="4.625" width="20.5" height="3.75" rx="1.875" fill="#4D4D4D" />
            <rect x="101.923" y="28" width="20.5" height="1.5" rx="0.75" fill="#DB8E00" />
            <rect x="5.36719" y="4.625" width="3.75" height="3.75" rx="1" fill="#4D4D4D" />
            <rect x="5.36719" y="13.375" width="3.75" height="3.75" rx="1" fill="#4D4D4D" />
            <rect x="5.36719" y="20.875" width="3.75" height="3.75" rx="1" fill="#4D4D4D" />
            <rect x="5.36719" y="28.375" width="3.75" height="3.75" rx="1" fill="#4D4D4D" />
            <rect x="5.36719" y="35.875" width="3.75" height="3.75" rx="1" fill="#4D4D4D" />
            <rect x="5.36719" y="78.875" width="3.75" height="3.75" rx="1" fill="#4D4D4D" />
        </g>
    </g>

    <!-- Outer borders (left border light-colored, right border dark-colored) -->
    <g clip-path="url(#clip_left)">
        <rect x="0.742188" y="0.5" width="160.5" height="87" rx="5.5" stroke="#E6E8EB"></rect>
    </g>
    <g clip-path="url(#clip_right)">
        <rect x="1.24219" y="0.5" width="160.5" height="87" rx="5.5" stroke="#292929"></rect>
    </g>
</svg>