<svg width="730" height="100" viewBox="0 0 730 100" fill="none" xmlns="http://www.w3.org/2000/svg">
<path d="M87.1907 76.5993L66.4936 55.9023L66.6016 55.7942L63.7277 52.9203H45.8715L42.9978 55.7941L43.1059 55.9022L22.8005 76.2076C18.84 70.1474 16.5376 62.9052 16.5376 55.1253C16.5376 54.3853 16.5585 53.65 16.5996 52.9203H0.0432685C0.0144677 53.6518 0 54.3869 0 55.1253C0 73.3777 8.87079 89.5582 22.5363 99.5907L54.8741 67.2529L87.1494 100C101.135 90.0017 110.251 73.6281 110.251 55.1253C110.251 54.3869 110.236 53.6518 110.207 52.9203H93.6511C93.6922 53.65 93.7131 54.3853 93.7131 55.1253C93.7131 63.0736 91.31 70.4606 87.1907 76.5993Z" fill="black"/>
<path d="M55.1253 16.5376C69.6346 16.5376 82.2736 24.5454 88.8636 36.3827H106.983C99.3123 15.1643 78.9897 0 55.1253 0C31.261 0 10.9384 15.1643 3.26809 36.3827H21.3871C27.9771 24.5454 40.616 16.5376 55.1253 16.5376Z" fill="black"/>
<path d="M174.5 86.2C167.7 86.2 161.667 84.6667 156.4 81.6C151.133 78.4667 147 74.2 144 68.8C141 63.3333 139.5 57.0667 139.5 50C139.5 42.9333 141 36.7 144 31.3C147 25.8333 151.1 21.5667 156.3 18.5C161.567 15.3667 167.6 13.8 174.4 13.8C179.2 13.8 183.667 14.6667 187.8 16.4C191.933 18.0667 195.533 20.4333 198.6 23.5C201.733 26.5 204.133 29.9667 205.8 33.9L193.1 38.6C191.967 36.1333 190.467 34 188.6 32.2C186.733 30.3333 184.6 28.9 182.2 27.9C179.8 26.8333 177.2 26.3 174.4 26.3C170.333 26.3 166.7 27.3333 163.5 29.4C160.367 31.4 157.9 34.1667 156.1 37.7C154.367 41.2333 153.5 45.3333 153.5 50C153.5 54.6667 154.4 58.8 156.2 62.4C158 65.9333 160.5 68.7333 163.7 70.8C166.9 72.8 170.567 73.8 174.7 73.8C177.567 73.8 180.167 73.2667 182.5 72.2C184.9 71.0667 187 69.5333 188.8 67.6C190.667 65.6667 192.167 63.4333 193.3 60.9L206 65.5C204.333 69.5667 201.933 73.1667 198.8 76.3C195.733 79.4333 192.133 81.8667 188 83.6C183.867 85.3333 179.367 86.2 174.5 86.2Z" fill="black"/>
<path d="M216.061 85V15H229.761V85H216.061Z" fill="black"/>
<path d="M244.967 85V15H270.967C275.901 15 280.267 16 284.067 18C287.867 19.9333 290.834 22.6667 292.967 26.2C295.101 29.6667 296.167 33.7 296.167 38.3C296.167 42.8333 295.134 46.8667 293.067 50.4C291.001 53.9333 288.167 56.7333 284.567 58.8C280.967 60.8 276.801 61.8 272.067 61.8H258.667V85H244.967ZM258.667 49.2H271.767C274.834 49.2 277.334 48.2 279.267 46.2C281.267 44.1333 282.267 41.5 282.267 38.3C282.267 35.1 281.167 32.5 278.967 30.5C276.834 28.5 274.067 27.5 270.667 27.5H258.667V49.2Z" fill="black"/>
<path d="M351.321 85V15H365.021V85H351.321ZM305.221 85V14.9H318.921V85H305.221ZM315.421 55.5V42.9H357.821V55.5H315.421Z" fill="black"/>
<path d="M380.221 85V15H424.521V27.5H393.921V43.4H420.321V55.6H393.921V72.5H424.921V85H380.221Z" fill="black"/>
<path d="M439.108 85V15H465.108C470.041 15 474.408 15.9667 478.208 17.9C482.008 19.8333 484.974 22.5 487.108 25.9C489.241 29.2333 490.308 33.1333 490.308 37.6C490.308 42 489.174 45.9333 486.908 49.4C484.708 52.8 481.674 55.4667 477.808 57.4C473.941 59.2667 469.541 60.2 464.608 60.2H452.808V85H439.108ZM477.608 85L461.408 56.9L471.908 49.4L493.108 85H477.608ZM452.808 47.7H465.208C467.275 47.7 469.108 47.2667 470.708 46.4C472.374 45.5333 473.674 44.3333 474.608 42.8C475.608 41.2667 476.108 39.5333 476.108 37.6C476.108 34.6 475.008 32.1667 472.808 30.3C470.674 28.4333 467.908 27.5 464.508 27.5H452.808V47.7Z" fill="black"/>
<path d="M559.661 85L579.761 15H593.661L572.761 85H559.661ZM517.461 85L496.761 15H510.661L530.561 85H517.461ZM519.261 85L538.361 15H550.761L531.761 85H519.261ZM558.361 85L539.561 15H551.961L571.461 85H558.361Z" fill="black"/>
<path d="M602.096 85V15H615.796V85H602.096Z" fill="black"/>
<path d="M631.002 85V15H644.702V72.5H675.502V85H631.002Z" fill="black"/>
<path d="M684.713 85V15H698.413V72.5H729.213V85H684.713Z" fill="black"/>
</svg>
