<svg width="176" height="35" viewBox="0 0 176 35" fill="none" xmlns="http://www.w3.org/2000/svg">
<mask id="mask0_1_15" style="mask-type:alpha" maskUnits="userSpaceOnUse" x="0" y="0" width="176" height="35">
<path d="M0 0H175.331V34.2525H0V0Z" fill="#14158B"/>
</mask>
<g mask="url(#mask0_1_15)">
<path fill-rule="evenodd" clip-rule="evenodd" d="M48.8492 18.0887H36.4439C36.322 20.1796 36.7881 21.9636 37.8419 23.4406C38.91 25.0309 40.742 25.9635 42.6816 25.9043C44.5476 25.9043 46.305 24.9296 47.9538 22.9802L49.1721 23.8981C47.3081 26.3618 44.906 27.5936 41.9658 27.5936C39.2896 27.5936 37.0835 26.7315 35.3474 25.0073C33.6113 23.2832 32.7453 21.1055 32.7494 18.4744C32.7494 15.9668 33.5443 13.8739 35.1342 12.1955C36.7241 10.5172 38.7982 9.68402 41.3567 9.69598C43.7445 9.69598 45.6086 10.4993 46.9486 12.1058C48.2888 13.7124 48.9223 15.7057 48.8492 18.0857V18.0887ZM36.5505 16.3994H45.0481C45.1456 14.9682 44.8948 13.7822 44.2958 12.8414C43.6014 11.7411 42.5496 11.1899 41.1404 11.1879C39.822 11.1438 38.5691 11.7525 37.8053 12.8085C37.0865 13.7234 36.6683 14.9194 36.5505 16.3964" fill="#14158B"/>
<path fill-rule="evenodd" clip-rule="evenodd" d="M58.0621 23.1954L61.0408 16.3186C61.8307 14.4888 62.2246 13.3386 62.2226 12.8682C62.2226 12.3749 61.8875 12.031 61.2175 11.8307C60.5474 11.6304 60.2154 11.3075 60.2154 10.862V10.2401H67.0287V10.8739C67.0287 11.2955 66.8978 11.5317 66.6328 11.5796C66.2854 11.6551 65.9488 11.7726 65.6308 11.9294C65.1028 12.2822 64.5952 12.9988 64.1079 14.0791L58.2418 27.3155H56.2712L50.1005 13.7263C49.67 12.7875 49.2162 12.1656 48.739 11.8606C48.4494 11.7497 48.1495 11.6666 47.8436 11.6125C47.603 11.5676 47.4842 11.3135 47.4842 10.8739V10.2401H55.7686V10.8739C55.7686 11.3184 55.4336 11.6354 54.7635 11.8247C54.0935 12.0141 53.7584 12.3071 53.7584 12.7038C53.8456 13.1803 53.9982 13.643 54.2122 14.0791L58.0621 23.1954Z" fill="#14158B"/>
<path fill-rule="evenodd" clip-rule="evenodd" d="M81.4861 18.0887H69.0777C68.96 20.1796 69.426 21.9636 70.4757 23.4406C71.5453 25.031 73.3781 25.9634 75.3184 25.9043C77.1825 25.9043 78.9399 24.9296 80.5907 22.9802L81.8089 23.8981C79.9449 26.3618 77.5419 27.5936 74.5997 27.5936C71.9235 27.5936 69.7183 26.7315 67.9843 25.0073C66.2503 23.2832 65.3832 21.1055 65.3832 18.4744C65.3832 15.9668 66.1782 13.8739 67.7681 12.1955C69.3579 10.5172 71.4321 9.68402 73.9905 9.69598C76.3825 9.69598 78.2475 10.4993 79.5855 12.1058C80.9237 13.7124 81.5572 15.7057 81.4861 18.0857V18.0887ZM69.1843 16.3964H77.685C77.7805 14.9652 77.5297 13.7792 76.9327 12.8384C76.2383 11.7381 75.1855 11.187 73.7743 11.185C72.4505 11.1357 71.1907 11.745 70.424 12.8055C69.7092 13.7204 69.2909 14.9164 69.1691 16.3934" fill="#14158B"/>
<path fill-rule="evenodd" clip-rule="evenodd" d="M87.3668 10.1014V15.4175C87.6728 14.1023 88.2388 12.8589 89.0329 11.7579C90.0238 10.3945 91.1222 9.71375 92.3284 9.71574C92.9352 9.69277 93.531 9.87893 94.0127 10.242C94.4675 10.6058 94.7168 11.1619 94.6828 11.7369C94.69 12.2374 94.4577 12.7122 94.0553 13.0196C93.6531 13.3561 93.1401 13.5378 92.6117 13.5309C92.2182 13.5236 91.8301 13.4403 91.4695 13.2857C91.2314 13.1723 90.9796 13.0889 90.7202 13.0375C89.8634 13.0375 89.0786 14.0342 88.3659 16.0275C87.752 17.5529 87.414 19.1718 87.3668 20.8113L87.3669 24.1002C87.3669 24.8746 87.5526 25.356 87.9303 25.5444C88.2593 25.5683 88.6065 25.6042 88.972 25.652C89.3344 25.6968 89.5172 25.9689 89.5172 26.4593V27.0931H81.8419V26.4353C81.8419 25.9659 82.0155 25.7028 82.3627 25.643C82.7099 25.5832 83.051 25.5324 83.3861 25.4846C83.7455 25.2992 83.9221 24.8298 83.9221 24.0763V13.2349C83.9221 12.4844 83.7455 12.015 83.3861 11.8266C83.051 11.7788 82.7099 11.728 82.3627 11.6682C82.0155 11.6084 81.8419 11.3602 81.8419 10.8758V10.242L87.3668 10.1014Z" fill="#14158B"/>
<path fill-rule="evenodd" clip-rule="evenodd" d="M100.523 26.1913V31.2741C100.523 32.0276 100.703 32.494 101.059 32.6824C101.394 32.7302 101.741 32.79 102.101 32.8588C102.46 32.9275 102.64 33.1877 102.64 33.6182V34.2521H95.1441V33.6182C95.1441 33.1966 95.3055 32.9455 95.6284 32.8618C95.9513 32.7781 96.265 32.7033 96.5787 32.6345C96.9097 32.4213 97.0762 31.9628 97.0782 31.2592V13.236C97.0782 12.3689 96.7858 11.8646 96.201 11.7231C95.6162 11.5825 95.3238 11.3224 95.3238 10.9487V10.2431L100.343 10.1025V11.756C102.016 10.3965 103.762 9.71583 105.579 9.71384C108.04 9.71384 110.036 10.5709 111.567 12.2852C113.027 13.9535 113.756 16.0465 113.754 18.564C113.754 21.1234 113.013 23.2472 111.53 24.9355C109.953 26.7653 107.886 27.6623 105.329 27.6264C103.624 27.6081 101.959 27.1201 100.523 26.2182L100.523 26.1913ZM100.523 12.7337V24.6066C101.563 25.531 102.921 26.0333 104.324 26.0119C106.281 26.0119 107.728 25.1906 108.664 23.5482C109.403 22.2326 109.773 20.5314 109.773 18.4444C109.773 16.4272 109.391 14.7957 108.628 13.5499C107.671 12.049 106.237 11.2975 104.324 11.2955C102.921 11.2761 101.563 11.7793 100.523 12.7038" fill="#14158B"/>
<path fill-rule="evenodd" clip-rule="evenodd" d="M120.213 -0.00143051V24.0764C120.213 24.782 120.369 25.2404 120.679 25.4517C120.966 25.5205 121.264 25.5982 121.575 25.6789C121.886 25.7597 122.041 26.0138 122.041 26.4354V27.0693H114.868V26.4354C114.868 26.0138 115.023 25.7627 115.337 25.6789C115.651 25.5952 115.946 25.5205 116.269 25.4517C116.6 25.2404 116.767 24.782 116.769 24.0764V3.14694C116.769 2.44132 116.602 1.98387 116.269 1.77458L115.355 1.54434C115.033 1.46363 114.871 1.20949 114.871 0.787889V0.139072L120.213 -0.00143051Z" fill="#14158B"/>
<path fill-rule="evenodd" clip-rule="evenodd" d="M133.301 16.4442C133.301 12.8323 132.118 11.0254 129.752 11.0234C128.839 11.0234 128.342 11.5287 128.245 12.5393C128.127 13.8031 127.434 14.4359 126.165 14.4379C125.677 14.4516 125.203 14.2814 124.84 13.9625C124.48 13.6451 124.282 13.1872 124.3 12.7128C124.301 11.754 124.994 10.9796 126.381 10.3896C127.437 9.95324 128.57 9.72662 129.716 9.72284C132.727 9.72284 134.807 10.7085 135.957 12.6799C136.576 13.8276 136.885 15.1126 136.852 16.4113V21.8948C136.852 24.4302 137.378 25.698 138.43 25.698C138.797 25.6622 139.14 25.5002 139.398 25.2405L139.541 25.4528C139.67 25.6089 139.767 25.7875 139.828 25.979C139.828 26.3318 139.523 26.6896 138.914 27.0524C138.36 27.4019 137.717 27.5914 137.059 27.5995C135.457 27.5995 134.357 26.7783 133.758 25.1359C132.204 26.7783 130.483 27.5995 128.595 27.5995C127.115 27.6379 125.664 27.1919 124.471 26.3318C123.267 25.4932 122.568 24.1208 122.607 22.6722C122.607 19.2218 126.169 17.1438 133.292 16.4382L133.301 16.4442ZM133.404 21.1204V17.7418C131.807 17.8411 130.25 18.2733 128.836 19.0095C127.234 19.9005 126.433 21.1443 126.433 22.7409C126.394 23.5704 126.669 24.3846 127.203 25.0282C127.748 25.6368 128.547 25.9672 129.372 25.9252C130.296 25.9249 131.188 25.5944 131.881 24.9953C132.911 24.1482 133.426 22.8526 133.426 21.1084" fill="#14158B"/>
<path fill-rule="evenodd" clip-rule="evenodd" d="M140.937 10.9489V10.2433L145.923 10.1027V11.8638C147.424 10.4696 149.415 9.69923 151.481 9.71405C155.283 9.71405 157.183 11.2987 157.183 14.468V24.0776C157.183 24.7832 157.351 25.2417 157.686 25.453L158.599 25.6802C158.922 25.7639 159.084 26.0151 159.084 26.4366V27.0705H151.804V26.4366C151.804 26.0151 151.966 25.7639 152.289 25.6802C152.611 25.5965 152.928 25.5217 153.239 25.453C153.574 25.2417 153.741 24.7832 153.741 24.0776V15.4547C153.741 14.1152 153.562 13.1644 153.202 12.6023C152.674 11.805 151.659 11.4063 150.157 11.4063C149.366 11.4299 148.592 11.6347 147.897 12.0043C147.179 12.3213 146.569 12.8339 146.139 13.4813L146.139 24.0776C146.139 24.7832 146.307 25.2417 146.642 25.453C146.946 25.5217 147.269 25.5995 147.592 25.6802C147.915 25.7609 148.076 26.0151 148.076 26.4366V27.0705H140.937V26.4366C140.937 26.0151 141.242 25.734 141.817 25.5935C142.393 25.453 142.694 24.9477 142.694 24.0776V13.2362C142.694 12.5545 142.539 12.109 142.228 11.8997C141.96 11.7973 141.684 11.7144 141.403 11.6515C141.094 11.5605 140.897 11.2634 140.937 10.9489Z" fill="#14158B"/>
<path fill-rule="evenodd" clip-rule="evenodd" d="M165.738 27.5946C164.359 27.6036 162.99 27.3697 161.696 26.9039C159.954 26.2701 159.084 25.3791 159.086 24.2309C159.071 23.7168 159.295 23.2241 159.695 22.8914C160.103 22.5417 160.63 22.354 161.172 22.3652C161.679 22.3682 162.174 22.5214 162.591 22.8047C163.008 23.0401 163.265 23.4751 163.267 23.9469C163.259 24.1012 163.235 24.2543 163.197 24.4043C163.158 24.5542 163.134 24.7074 163.124 24.8618C163.124 25.7089 163.957 26.1315 165.622 26.1295C166.559 26.1517 167.484 25.9211 168.296 25.4628C169.202 24.9206 169.653 24.1931 169.651 23.2801C169.651 22.0842 168.802 21.1453 167.105 20.4636C165.552 19.8776 163.986 19.2906 162.409 18.7026C160.709 17.8355 159.86 16.5568 159.862 14.8665C159.862 13.2719 160.663 11.9763 162.265 10.9796C163.677 10.1293 165.306 9.6907 166.962 9.71488C168.091 9.6974 169.212 9.90068 170.261 10.3129C171.576 10.851 172.234 11.6374 172.234 12.6719C172.257 13.1665 172.029 13.6401 171.625 13.9366C170.808 14.5204 169.709 14.549 168.863 14.0084C168.442 13.7707 168.185 13.3278 168.192 12.8513C168.196 12.7221 168.208 12.5932 168.229 12.4656C168.249 12.3489 168.261 12.231 168.266 12.1128C168.266 11.5029 167.644 11.1979 166.402 11.1979C165.635 11.1916 164.885 11.4125 164.248 11.8317C163.509 12.3241 163.139 12.934 163.136 13.6616C163.137 14.7898 163.997 15.6867 165.719 16.3525L170.525 18.1136C172.247 19.0285 173.107 20.343 173.105 22.0573C173.105 23.8153 172.293 25.2106 170.669 26.2431C169.2 27.1757 167.48 27.6538 165.731 27.6155" fill="#14158B"/>
<path fill-rule="evenodd" clip-rule="evenodd" d="M175.33 6.9225C175.332 7.18731 175.279 7.44977 175.174 7.6939C175.072 7.92812 174.926 8.14192 174.745 8.32477C174.562 8.50719 174.343 8.65159 174.102 8.74934C173.852 8.85378 173.582 8.9067 173.31 8.90481C173.04 8.90734 172.773 8.85438 172.525 8.74934C172.04 8.54847 171.654 8.16978 171.449 7.6939C171.342 7.45041 171.288 7.18766 171.291 6.9225C171.289 6.65547 171.343 6.39089 171.449 6.14512C171.549 5.90847 171.696 5.69392 171.882 5.51425C172.067 5.33218 172.285 5.18521 172.525 5.08071C172.773 4.97809 173.041 4.92621 173.31 4.92823C173.582 4.9268 173.851 4.97864 174.102 5.08071C174.588 5.27825 174.973 5.65677 175.174 6.13316C175.28 6.38327 175.333 6.65179 175.33 6.9225ZM175.007 6.9225C175.008 6.69855 174.962 6.47676 174.873 6.27069C174.79 6.07505 174.67 5.89653 174.52 5.74448C174.363 5.58871 174.177 5.46476 173.971 5.3797C173.549 5.20426 173.072 5.20426 172.649 5.37971C172.447 5.4638 172.262 5.58449 172.104 5.7355C171.783 6.04598 171.603 6.4708 171.605 6.91353C171.604 7.13654 171.649 7.3574 171.739 7.56234C171.825 7.76176 171.949 7.94335 172.104 8.09754C172.261 8.25048 172.446 8.37231 172.649 8.45633C173.286 8.72176 174.023 8.57964 174.51 8.09753C174.664 7.94248 174.786 7.76106 174.873 7.56234C174.961 7.36018 175.007 7.14249 175.007 6.9225ZM173.853 8.07063L173.243 7.17365H172.863V8.07063H172.522V5.79828L173.463 5.79829C173.657 5.79739 173.846 5.86411 173.996 5.98665C174.156 6.1058 174.246 6.29487 174.236 6.49195C174.24 6.60199 174.215 6.71109 174.163 6.80889C174.121 6.88969 174.063 6.96176 173.993 7.02117C173.933 7.06916 173.865 7.10659 173.792 7.13179C173.745 7.149 173.695 7.16006 173.645 7.16468L174.255 8.06166L173.853 8.07063ZM173.892 6.49195C173.896 6.37738 173.847 6.26717 173.758 6.19296C173.68 6.12155 173.578 6.08105 173.472 6.07934H172.863V6.87466H173.472C173.577 6.87376 173.679 6.83554 173.758 6.76703C173.845 6.69804 173.895 6.593 173.892 6.48298V6.49195Z" fill="#14158B"/>
<path fill-rule="evenodd" clip-rule="evenodd" d="M26.2716 18.3889C26.2717 25.5129 20.3883 31.2879 13.1313 31.2874C5.87423 31.2868 -0.00817122 25.5109 -0.0070494 18.3869C-0.00592791 11.2629 5.87829 5.48874 13.1353 5.49039C20.3915 5.49039 26.2733 11.2657 26.2716 18.3889ZM8.49058 18.3889C8.48218 16.8321 7.19122 15.5759 5.6053 15.5814C4.01937 15.5869 2.73747 16.8519 2.74026 18.4088C2.74304 19.9657 4.02946 21.2263 5.6154 21.2263C7.20332 21.2263 8.49058 19.9627 8.49058 18.4038V18.3889ZM16.0075 18.4038C16.0075 16.8446 14.7196 15.5808 13.1313 15.5814C11.543 15.5819 10.256 16.8466 10.2571 18.4058C10.2582 19.965 11.547 21.228 13.1353 21.2263C14.7221 21.2247 16.0075 19.9615 16.0075 18.4038ZM23.5244 18.4038C23.5244 16.8446 22.2365 15.5808 20.6482 15.5814C19.0599 15.5819 17.7729 16.8466 17.774 18.4058C17.7751 19.965 19.0639 21.228 20.6522 21.2263C21.4145 21.2263 22.1455 20.9289 22.6842 20.3995C23.223 19.8701 23.5252 19.1521 23.5244 18.4038Z" fill="#14158B"/>
</g>
</svg>
