<svg width="147" height="38" viewBox="0 0 147 38" fill="none" xmlns="http://www.w3.org/2000/svg"><path d="M61.226 19.248h-2.934c-.392 0-.685.291-.685.776 0 .485.293.776.684.776h2.25v2.037c-.587.484-1.663.872-2.64.872-2.446 0-4.01-1.648-4.01-4.17 0-2.522 1.564-4.17 4.01-4.17.782 0 1.466.194 2.053.485.391.194.88.097 1.076-.194.098-.097.098-.291.098-.388 0-.291-.196-.485-.391-.582a6.11 6.11 0 00-3.032-.776c-3.13 0-5.477 2.425-5.477 5.625 0 3.491 2.25 5.625 5.672 5.625 1.272 0 2.837-.485 3.815-1.164.097-.097.39-.388.39-.776v-3.103c-.097-.485-.39-.873-.88-.873zM69.148 13.817c-3.228 0-5.673 2.425-5.673 5.625 0 3.297 2.347 5.625 5.673 5.625 3.227 0 5.672-2.424 5.672-5.625 0-3.297-2.347-5.625-5.672-5.625zm4.01 5.625c0 2.425-1.663 4.17-4.01 4.17-2.25 0-4.01-1.842-4.01-4.17 0-2.425 1.662-4.17 4.01-4.17 2.347 0 4.01 1.842 4.01 4.17zM81.764 13.817c-3.227 0-5.672 2.425-5.672 5.625 0 3.297 2.347 5.625 5.672 5.625 3.228 0 5.673-2.424 5.673-5.625 0-3.297-2.347-5.625-5.672-5.625zm4.108 5.625c0 2.425-1.662 4.17-4.01 4.17-2.25 0-4.01-1.842-4.01-4.17 0-2.425 1.663-4.17 4.01-4.17 2.25 0 4.01 1.842 4.01 4.17zM92.719 13.914H90.37c-.39 0-.782.29-.782.776v9.504c0 .388.391.776.782.776H92.523c3.814 0 6.357-2.23 6.357-5.722.098-3.297-2.25-5.334-6.161-5.334zm4.596 5.431c0 2.619-1.76 4.17-4.694 4.17H91.25v-8.05h1.468c2.836-.096 4.596 1.358 4.596 3.88zM107.585 13.914h-7.727c-.39 0-.684.29-.684.776 0 .485.293.776.684.776h3.032v8.922c0 .388.391.776.783.776.391 0 .782-.388.782-.776v-8.922h3.032c.391 0 .685-.291.685-.776 0-.485-.196-.776-.587-.776zM114.627 20.412c1.173-.388 2.249-1.455 2.249-3.104 0-1.551-.684-3.297-4.01-3.297h-2.249c-.391 0-.783.388-.783.776v9.601c0 .388.392.776.783.776s.782-.388.782-.776v-3.685h1.565l3.13 3.976c.098.194.391.388.782.388a.666.666 0 00.685-.679.737.737 0 00-.196-.485l-2.738-3.491zm.684-3.104c0 1.261-1.173 1.94-2.347 1.94h-1.467v-3.782h1.369c1.565-.097 2.445.582 2.445 1.842zM127.635 13.914c-.391 0-.783.29-.783.776v5.431c0 2.328-.978 3.588-2.738 3.588-1.956 0-3.032-1.357-3.032-3.685V14.69c0-.388-.391-.776-.783-.776-.391 0-.782.29-.782.776v5.625c0 3.006 1.761 4.85 4.597 4.85 2.054 0 4.303-1.262 4.303-4.753V14.69c0-.485-.391-.776-.782-.776zM134.285 18.763c-1.173-.485-2.249-.873-2.249-2.037 0-.872.685-1.454 1.858-1.454.587 0 1.076.097 1.663.485.098.097.293.097.391.097.196 0 .489-.097.587-.291.098-.097.098-.291.098-.388 0-.194-.098-.485-.294-.582-.782-.485-1.662-.776-2.64-.776-1.956 0-3.424 1.164-3.424 2.91 0 2.036 1.565 2.715 3.032 3.297 1.272.485 2.25.97 2.25 2.134 0 1.066-.978 1.551-2.054 1.551-.782 0-1.369-.388-2.152-.872-.293-.194-.782-.194-.978.096a.736.736 0 00-.195.485c0 .194.097.388.195.485.978.873 2.054 1.261 3.13 1.261 2.152 0 3.619-1.26 3.619-3.006.195-2.134-1.37-2.813-2.837-3.395zM146.413 13.914h-7.726c-.392 0-.685.29-.685.776 0 .485.293.776.685.776h3.032v8.922c0 .388.391.776.782.776s.782-.388.782-.776v-8.922h3.032c.392 0 .685-.291.685-.776 0-.485-.196-.776-.587-.776z" fill="#657795"></path><path d="M20.282 34.965c-.293-.097-.489 0-.684.194l-.196.29c-.489.486-1.271.68-1.956.389-.685-.291-1.174-.97-1.174-1.649 0-.485.196-.97.49-1.26l8.313-8.244c.195-.194.293-.485.195-.68a.878.878 0 00-.587-.581c-.293-.097-.488 0-.684.194l-8.313 8.05c-.783.775-1.859.581-2.446.096-.39-.387-.684-.97-.684-1.454a1.6 1.6 0 01.489-1.164l7.824-7.759c.391-.388.294-.776 0-1.067-.293-.29-.782-.388-1.076 0L11.97 28.08c-.391.388-.782.485-1.271.485-.783 0-1.37-.388-1.663-1.164-.294-.679-.098-1.455.391-1.94l7.824-7.758c.196-.194.294-.485.196-.68a.878.878 0 00-.587-.581c-.293-.097-.489 0-.685.194L8.35 24.394c-.489.388-.978.582-1.467.582-.782 0-1.37-.388-1.663-1.164-.293-.68-.097-1.455.392-1.94l3.814-3.782c.49-.485 1.174-1.067 2.152-2.134l1.565-1.552c.586-.582 1.271-1.163 1.564-1.552.196-.193.294-.484.196-.678a.878.878 0 00-.587-.582c-.293-.097-.489 0-.684.194l-2.837 2.812-6.26 6.11-.097.097s-.489.485-.685 1.261c-.39 1.067-.097 2.328.587 3.2.685.873 1.859 1.358 2.934 1.164-.097.97.294 1.94.978 2.716.685.679 1.76 1.067 2.739.97-.098.97.293 1.94.978 2.715.782.68 1.76 1.067 2.739.97-.098 1.067.39 2.134 1.27 2.91.588.485 1.37.776 2.153.776.39 0 .684-.098 1.075-.195.783-.29 1.174-.678 1.272-.678l.293-.388c.196-.194.294-.485.196-.68-.098-.29-.391-.581-.685-.581zM22.14 5.579l1.174-.776c4.108-2.522 9.39-1.843 12.813 1.552 1.956 1.94 3.032 4.558 3.032 7.37 0 2.813-1.076 5.335-3.032 7.371l-.098.097c-.196.194-.294.485-.196.68.098.29.294.484.587.581h.196a.75.75 0 00.489-.194l.098-.194a11.87 11.87 0 000-16.875C32.898.923 26.053.536 21.358 4.22c0 0-.098 0-.098.097-.39.29-.39.776-.097 1.067.097.29.489.485.978.194z" fill="#0A82C9"></path><path d="M4.047 21c.098-.195.098-.486-.098-.777l-.88-1.163A10.495 10.495 0 014.73 6.258c4.01-3.977 10.661-4.074 14.671-.097l3.912 3.879c.49.485.783 1.067.685 1.746 0 .679-.293 1.26-.782 1.745-.979.873-2.543.776-3.521-.194l-.979-.97-.488-.484a8982.251 8982.251 0 00-1.957-1.94c-.195-.194-.489-.291-.684-.194a.878.878 0 00-.587.582c-.098.29 0 .485.196.679l3.52 3.491c.783.776 1.859 1.261 3.032 1.164 1.174 0 2.152-.582 2.935-1.455 1.369-1.551 1.173-3.976-.392-5.528L20.478 4.9c-2.64-2.522-6.26-3.783-9.976-3.298-3.717.68-6.944 2.813-8.9 6.11C-.55 11.301-.55 15.86 1.7 19.642c0 .096.097.096.097.193l.098.097c.098.097.098.194.196.388l.195.291c.098.194.196.291.294.485.098.194.391.291.587.291.489 0 .782-.194.88-.388zM34.073 20.902c-1.076-1.067-3.032-1.067-4.108 0-.587.582-.88 1.455-.88 2.328-.88-.097-1.76.194-2.348.776-.586.582-.88 1.454-.88 2.327-.88-.097-1.76.194-2.347.776-.587.582-.88 1.455-.88 2.328-.88-.097-1.76.194-2.348.776-1.173 1.163-1.173 3.006 0 4.073l2.348 2.328c.587.582 1.271.873 2.053.873.783 0 1.468-.291 2.054-.873.587-.582.88-1.261.88-2.037v-.291h.294c.782 0 1.467-.29 2.054-.873.587-.582.88-1.26.88-2.036v-.291h.294c.782 0 1.467-.291 2.054-.873.586-.582.88-1.261.88-2.037v-.29h.293c.783 0 1.467-.292 2.054-.874.587-.582.88-1.26.88-2.036s-.293-1.455-.88-2.037l-2.347-2.037zm1.858 4.461c0 .388-.196.776-.489 1.067-.293.291-.685.388-1.076.388s-.782-.194-1.076-.388l-2.347-2.327a1.513 1.513 0 010-2.134c.293-.29.685-.485 1.076-.485s.782.194 1.076.485l2.347 2.328c.293.194.489.582.489 1.066zm-3.227 3.104c0 .388-.196.776-.49 1.067-.293.29-.684.388-1.075.388-.392 0-.783-.194-1.076-.388l-2.348-2.328c-.293-.29-.489-.679-.489-1.067 0-.388.196-.776.49-1.066.293-.291.684-.485 1.075-.485.392 0 .783.194 1.076.485l2.348 2.327c.39.291.488.679.488 1.067zm-3.13 3.104c0 .387-.196.775-.49 1.066-.293.291-.684.388-1.075.388-.391 0-.783-.194-1.076-.388l-2.347-2.327a1.513 1.513 0 010-2.134c.293-.29.684-.485 1.076-.485.39 0 .782.194 1.075.485l2.348 2.328c.293.29.489.678.489 1.066zm-3.13 3.2c0 .388-.196.776-.489 1.067-.293.29-.685.388-1.076.388s-.782-.194-1.076-.388l-2.347-2.328a1.513 1.513 0 010-2.133c.293-.291.685-.485 1.076-.485s.782.194 1.076.485l2.347 2.327c.293.194.489.582.489 1.067z" fill="#0A82C9"></path></svg>