<svg width="221" height="61" viewBox="0 0 221 61" fill="none" xmlns="http://www.w3.org/2000/svg">
<path fill-rule="evenodd" clip-rule="evenodd" d="M151.744 13.9773C152.967 12.2896 153.585 10.3893 153.585 8.34285C153.585 6.14356 152.854 4.22998 151.399 2.65526C149.923 1.06061 148.056 0.25 145.843 0.25C143.743 0.25 141.975 0.81477 140.586 1.92438C139.137 3.08715 138.406 4.4426 138.406 5.96416C138.406 6.96082 138.719 7.84452 139.337 8.59534C139.795 9.15346 140.659 9.8179 142.168 9.8179C143.191 9.8179 144.075 9.47239 144.78 8.78802C145.491 8.09701 145.849 7.27975 145.849 6.34954C145.849 5.59208 145.577 4.82797 145.045 4.07716C144.76 3.66521 144.726 3.50574 144.74 3.49245C144.826 3.44594 145.099 3.33299 145.783 3.33299C146.886 3.33299 147.77 3.69179 148.481 4.42931C149.205 5.18013 149.558 6.13028 149.558 7.32626C149.558 9.41924 148.727 10.9275 147.006 11.9441C145.158 13.0537 142.075 13.6185 137.835 13.6185C132.572 13.6185 128.996 14.6019 126.903 16.6217C124.836 18.6217 123.793 20.8874 123.793 23.3591C123.793 25.1332 124.431 26.6481 125.687 27.8707C126.936 29.08 128.451 29.6979 130.186 29.6979C131.681 29.6979 132.937 29.2261 133.914 28.2959C134.898 27.3524 135.403 26.1697 135.403 24.7678C135.403 23.7047 135.064 22.8475 134.386 22.223C133.728 21.6117 132.937 21.2994 132.047 21.2994C131.09 21.2994 130.252 21.6848 129.634 22.409C129.049 23.1 128.75 23.9638 128.75 24.987C128.75 25.0933 128.757 25.2794 128.784 25.5518L128.81 25.8309C128.81 25.8973 128.804 25.9372 128.797 25.9704C128.77 25.9704 128.744 25.977 128.711 25.977C128.378 25.977 128.013 25.7578 127.627 25.3259C127.202 24.8541 126.996 24.2495 126.996 23.4721C126.996 22.1166 127.654 21.0004 129.01 20.0635C130.472 19.0469 132.1 18.5553 133.98 18.5553C136.3 18.5553 138.067 19.1665 139.39 20.4356C140.706 21.6914 141.344 23.1266 141.344 24.8209C141.344 27.4321 139.988 29.6447 137.19 31.5716C134.326 33.5516 130.817 34.5483 126.77 34.5483C122.524 34.5483 118.928 33.2792 116.091 30.7743C113.286 28.2959 111.864 25.6714 111.864 22.9538C111.864 21.6383 112.289 20.5353 113.16 19.5785C114.011 18.6483 114.848 18.2031 115.718 18.2031C116.37 18.2031 117.081 18.522 117.832 19.1599C118.902 20.0635 119.812 20.5021 120.623 20.5021C121.64 20.5021 122.231 20.0436 122.543 19.6582C122.949 19.1599 123.155 18.6151 123.155 18.0304C123.155 16.8676 122.537 14.9141 118.403 14.9141C118.237 14.9141 118.184 14.8809 118.184 14.8809C118.177 14.8743 118.011 14.6949 117.719 13.9441C117.506 13.3992 117.4 12.7016 117.4 11.8644C117.4 9.99065 118.171 8.36943 119.746 6.89438C121.334 5.40604 122.975 4.6818 124.763 4.6818C125.813 4.6818 126.684 4.94758 127.408 5.49906C128.066 5.99739 128.372 6.59538 128.372 7.37941C128.372 7.97076 128.252 8.56876 128.006 9.14682C127.714 9.83119 127.661 10.1169 127.661 10.3495C127.661 11.2132 128.259 11.8179 129.123 11.8179C130.139 11.8179 131.063 11.2066 131.867 10.0106C132.578 8.94084 132.944 7.7515 132.944 6.48242C132.944 4.74824 132.186 3.25326 130.684 2.03069C129.242 0.854639 127.435 0.256643 125.315 0.256643C123.447 0.256643 121.633 0.754971 119.912 1.73834C118.211 2.70842 116.795 3.99743 115.692 5.57879C114.562 7.20666 113.984 8.994 113.984 10.8943C113.984 12.2099 114.27 13.6052 114.828 15.0603C112.356 15.6052 110.409 16.6948 109.033 18.3094C107.445 20.1765 106.641 22.4887 106.641 25.1996C106.641 27.3856 107.166 29.4653 108.196 31.3723C109.219 33.2659 110.641 34.8871 112.422 36.1961C114.163 37.4718 116.024 38.4618 117.958 39.1263C119.899 39.7973 122.444 40.1428 125.514 40.1428C129.302 40.1428 132.572 39.5714 135.23 38.4419C137.915 37.3057 140.234 35.5316 142.115 33.1795C144.035 30.7809 145.005 28.2428 145.005 25.6382C145.005 22.914 144.035 20.5552 142.101 18.5951C144.135 18.4024 145.79 18.0702 147.105 17.5785C148.966 16.8609 150.528 15.6583 151.744 13.9773Z" fill="black"/>
<path fill-rule="evenodd" clip-rule="evenodd" d="M3.72085 8.04385H10.5658V13.5055H15.4968V19.0669H10.5658V29.0999C10.5658 32.9735 11.7753 33.7709 14.4401 33.7709C14.892 33.7709 15.1446 33.7709 15.6962 33.7177V39.5781C15.6962 39.5781 14.6395 39.8239 12.7256 39.8239C6.43224 39.8239 3.66768 36.3489 3.66768 29.2992V19.0669H0.896484V13.5055H3.7142V8.04385H3.72085ZM33.1939 20.4555C28.0104 20.4555 26.0965 23.6316 26.0965 28.7942V39.4717H19.1519V13.5055H25.9436V17.924C27.1 15.3394 29.7183 13.5055 33.1939 13.5055V20.4555ZM36.8025 13.5055V28.5019C36.8025 34.0101 38.4107 40.1229 45.9135 40.1229C49.336 40.1229 51.8547 38.2359 52.9645 36.4486V39.4784H59.7629V13.5055H52.8183V29.0999C52.8183 31.8772 51.0041 33.9702 48.1398 33.9702C45.774 33.9702 43.7604 32.1829 43.7604 29.2992V13.5055H36.8025ZM63.511 35.3057L67.5847 31.731C68.8939 33.2194 70.655 34.5616 73.6256 34.5616C75.586 34.5616 76.8487 33.7177 76.8487 32.2294C76.8487 30.6547 74.8949 29.9437 72.5423 29.0932C68.9537 27.7909 64.4148 26.1431 64.4148 20.5619C64.4148 15.7447 68.5949 12.8677 73.9778 12.8677C78.962 12.8677 81.7332 15.4523 82.9892 17.4855L78.4104 20.8609C77.6063 19.8708 76.1442 18.3759 73.6787 18.3759C72.0705 18.3759 70.9607 19.1732 70.9607 20.4622C70.9607 22.11 72.9544 22.7811 75.3534 23.585C78.9487 24.7943 83.4411 26.3092 83.4411 31.8839C83.4411 36.9469 79.0085 40.1229 73.3265 40.1229C68.143 40.1229 64.9199 37.5382 63.511 35.3057ZM96.0278 8.04385H89.1828V13.5055H86.3651V19.0669H89.1363V29.2992C89.1363 36.3489 91.9075 39.8239 98.1942 39.8239C100.108 39.8239 101.165 39.5781 101.165 39.5781V33.7177C100.613 33.7709 100.361 33.7709 99.9088 33.7709C97.2373 33.7709 96.0344 32.9735 96.0344 29.0999V19.0669H100.965V13.5055H96.0344V8.04385H96.0278Z" fill="black"/>
<path fill-rule="evenodd" clip-rule="evenodd" d="M208.728 39.6774H201.784V3.7778H208.728V39.6774ZM174.384 32.1294L169.4 13.7045H162.854L157.823 32.1294L153.703 15.751C152.228 17.6645 150.367 19.0599 148.147 19.8838C147.961 19.9569 147.762 20.0167 147.569 20.0831L153.49 39.6774H161.239L166.124 23.0399L170.955 39.6774H178.704L186.605 13.7045H179.056L174.384 32.1294ZM189.609 39.6774H196.554V13.7111H189.609V39.6774ZM213.952 39.6774H220.896V3.7778H213.952V39.6774ZM193.032 11.6248C190.765 11.6248 189.004 9.93714 189.004 7.69799C189.004 5.46547 190.765 3.7778 193.032 3.7778C195.344 3.7778 197.105 5.46547 197.105 7.69799C197.112 9.93714 195.344 11.6248 193.032 11.6248Z" fill="black"/>
<path d="M169.12 57.1935C167.333 57.1935 165.732 56.0069 165.732 53.8768C165.732 51.6753 167.39 50.5316 169.177 50.5316C170.65 50.5316 171.665 51.3036 171.665 52.4473C171.665 53.5051 170.779 53.7625 169.02 53.8482L167.805 53.9197C167.533 53.934 167.433 54.0627 167.433 54.3772C167.433 55.4351 168.506 56.2928 169.835 56.2928C170.421 56.2928 171.107 56.1356 171.608 55.5209L171.908 55.7782C171.636 56.2928 170.678 57.1935 169.12 57.1935ZM167.348 52.9333C167.348 53.3908 167.491 53.5051 167.819 53.4908L168.677 53.4623C169.907 53.3908 170.235 53.162 170.235 52.4615C170.235 51.7039 169.864 51.0177 168.934 51.0177C167.805 51.0177 167.348 52.0756 167.348 52.9333ZM175.369 57.1935C174.425 57.1935 173.639 56.9219 173.167 56.5502C172.824 55.8354 172.781 54.9919 173.296 54.9919C173.481 54.9919 173.596 55.092 173.667 55.2921C174.01 56.3071 174.611 56.736 175.511 56.736C176.441 56.736 176.784 56.2785 176.784 55.7496C176.784 55.0062 176.083 54.8061 175.197 54.5201C174.082 54.1628 173.01 53.6195 173.01 52.433C173.01 51.2321 174.11 50.5316 175.583 50.5316C176.412 50.5316 177.184 50.7746 177.656 51.1177C177.999 51.8182 178.042 52.6474 177.527 52.6474C177.341 52.6474 177.227 52.5616 177.156 52.3472C176.812 51.3465 176.212 50.9605 175.454 50.9605C174.74 50.9605 174.382 51.3179 174.382 51.8754C174.382 52.5902 174.954 52.8904 175.712 53.1477C176.741 53.4766 178.228 53.8482 178.228 55.2206C178.228 56.493 176.941 57.1935 175.369 57.1935ZM181.709 57.1792C180.608 57.1792 179.893 56.593 179.893 55.3493V51.6753C179.893 51.2607 179.779 51.1749 179.522 51.1749H178.864V50.8175C179.793 50.5173 180.308 50.0455 180.751 49.2736C180.823 49.1449 180.894 49.1163 181.009 49.1163H181.18C181.323 49.1163 181.409 49.2021 181.409 49.3308L181.395 50.2743C181.395 50.5745 181.509 50.6603 182.167 50.6603H183.21V51.2607L182.167 51.2035C181.509 51.1749 181.395 51.2893 181.395 51.7039V55.2063C181.395 56.0355 181.523 56.5645 182.224 56.5645C182.51 56.5645 182.767 56.4787 182.981 56.2928C183.167 56.4787 183.182 56.6359 183.067 56.7217C182.781 56.979 182.338 57.1792 181.709 57.1792ZM185.723 57.1935C184.751 57.1935 183.85 56.736 183.85 55.6209C183.85 54.4773 184.779 53.7339 187.724 53.3479C188.053 53.305 188.167 53.2049 188.167 52.8618V52.6045C188.167 51.5752 187.796 50.9891 186.881 50.9891C185.179 50.9891 186.423 52.8475 185.022 52.8475C184.507 52.8475 184.264 52.533 184.264 52.1041C184.264 51.0034 185.794 50.5316 187.281 50.5316C188.968 50.5316 189.668 51.2035 189.668 53.0334V55.964C189.668 56.4644 189.897 56.6073 190.283 56.4644V56.6931C190.126 57.0219 189.725 57.1935 189.311 57.1935C188.625 57.1935 188.224 56.7789 188.182 56.1928C188.182 56.0355 188.067 56.0069 187.953 56.1642C187.495 56.7074 186.695 57.1935 185.723 57.1935ZM185.408 55.3064C185.408 55.864 185.751 56.35 186.523 56.35C187.452 56.35 188.167 55.6638 188.167 54.7203V54.2485C188.167 53.9197 188.067 53.7482 187.595 53.7911C185.808 53.9769 185.408 54.706 185.408 55.3064ZM193.632 57.1792C192.531 57.1792 191.816 56.593 191.816 55.3493V51.6753C191.816 51.2607 191.702 51.1749 191.444 51.1749H190.787V50.8175C191.716 50.5173 192.231 50.0455 192.674 49.2736C192.745 49.1449 192.817 49.1163 192.931 49.1163H193.103C193.246 49.1163 193.331 49.2021 193.331 49.3308L193.317 50.2743C193.317 50.5745 193.431 50.6603 194.089 50.6603H195.133V51.2607L194.089 51.2035C193.431 51.1749 193.317 51.2893 193.317 51.7039V55.2063C193.317 56.0355 193.446 56.5645 194.146 56.5645C194.432 56.5645 194.689 56.4787 194.904 56.2928C195.09 56.4787 195.104 56.6359 194.99 56.7217C194.704 56.979 194.261 57.1792 193.632 57.1792ZM199.164 57.1935C197.377 57.1935 195.776 56.0069 195.776 53.8768C195.776 51.6753 197.434 50.5316 199.221 50.5316C200.694 50.5316 201.709 51.3036 201.709 52.4473C201.709 53.5051 200.822 53.7625 199.064 53.8482L197.849 53.9197C197.577 53.934 197.477 54.0627 197.477 54.3772C197.477 55.4351 198.549 56.2928 199.879 56.2928C200.465 56.2928 201.151 56.1356 201.651 55.5209L201.952 55.7782C201.68 56.2928 200.722 57.1935 199.164 57.1935ZM197.391 52.9333C197.391 53.3908 197.534 53.5051 197.863 53.4908L198.721 53.4623C199.95 53.3908 200.279 53.162 200.279 52.4615C200.279 51.7039 199.907 51.0177 198.978 51.0177C197.849 51.0177 197.391 52.0756 197.391 52.9333ZM207.599 57.2507C205.098 57.2507 203.025 55.4637 203.025 52.7046C203.025 49.8883 205.169 48.0012 207.757 48.0012C210.244 48.0012 212.331 49.7882 212.331 52.5187C212.331 55.3636 210.187 57.2507 207.599 57.2507ZM204.897 52.047C204.897 54.7775 206.298 56.6788 207.985 56.6788C209.186 56.6788 210.459 55.7496 210.459 53.1763C210.459 50.4744 209.058 48.5731 207.371 48.5731C206.17 48.5731 204.897 49.5023 204.897 52.047ZM216.591 57.2507C215.347 57.2507 214.289 56.8504 213.631 56.4358C213.217 55.4351 213.202 54.2199 213.774 54.2199C213.917 54.2199 213.974 54.2771 214.046 54.4773C214.546 55.9068 215.69 56.7074 216.977 56.6931C218.02 56.6931 218.592 56.1785 218.592 55.3064C218.592 54.1056 217.491 53.8054 216.233 53.4051C214.689 52.9047 213.417 52.0613 213.417 50.5316C213.417 48.9734 214.761 48.0012 216.719 48.0012C217.763 48.0012 218.849 48.2872 219.507 48.7017C219.922 49.7024 219.936 50.9176 219.364 50.9176C219.221 50.9176 219.164 50.8604 219.092 50.6603C218.606 49.245 217.506 48.5302 216.419 48.5302C215.304 48.5302 214.904 49.2736 214.904 49.9455C214.904 50.9748 215.761 51.4037 216.948 51.7753C218.349 52.2328 220.207 52.8332 220.207 54.7203C220.207 56.6073 218.306 57.2507 216.591 57.2507Z" fill="black"/>
<path d="M119.022 57.6V52.17H119.592L119.645 52.785C119.725 52.665 119.827 52.5525 119.952 52.4475C120.077 52.3375 120.227 52.25 120.402 52.185C120.577 52.115 120.777 52.08 121.002 52.08C121.372 52.08 121.692 52.1675 121.962 52.3425C122.237 52.5175 122.45 52.755 122.6 53.055C122.755 53.35 122.832 53.6875 122.832 54.0675C122.832 54.4475 122.755 54.7875 122.6 55.0875C122.45 55.3825 122.237 55.615 121.962 55.785C121.687 55.955 121.365 56.04 120.995 56.04C120.69 56.04 120.42 55.9775 120.185 55.8525C119.955 55.7275 119.777 55.5525 119.652 55.3275V57.6H119.022ZM120.927 55.4925C121.172 55.4925 121.39 55.4325 121.58 55.3125C121.77 55.1925 121.917 55.0275 122.022 54.8175C122.132 54.6025 122.187 54.35 122.187 54.06C122.187 53.775 122.132 53.525 122.022 53.31C121.917 53.095 121.77 52.9275 121.58 52.8075C121.39 52.6875 121.172 52.6275 120.927 52.6275C120.677 52.6275 120.457 52.6875 120.267 52.8075C120.077 52.9275 119.93 53.095 119.825 53.31C119.72 53.525 119.667 53.775 119.667 54.06C119.667 54.35 119.72 54.6025 119.825 54.8175C119.93 55.0275 120.077 55.1925 120.267 55.3125C120.457 55.4325 120.677 55.4925 120.927 55.4925ZM125.704 56.04C125.354 56.04 125.039 55.96 124.759 55.8C124.479 55.635 124.259 55.405 124.099 55.11C123.939 54.81 123.859 54.4625 123.859 54.0675C123.859 53.6625 123.939 53.3125 124.099 53.0175C124.264 52.7175 124.487 52.4875 124.767 52.3275C125.052 52.1625 125.369 52.08 125.719 52.08C126.079 52.08 126.397 52.1625 126.672 52.3275C126.952 52.4875 127.172 52.7175 127.332 53.0175C127.497 53.3125 127.579 53.66 127.579 54.06C127.579 54.46 127.497 54.81 127.332 55.11C127.167 55.405 126.944 55.635 126.664 55.8C126.384 55.96 126.064 56.04 125.704 56.04ZM125.712 55.5C125.927 55.5 126.127 55.4475 126.312 55.3425C126.497 55.2325 126.647 55.07 126.762 54.855C126.877 54.64 126.934 54.375 126.934 54.06C126.934 53.74 126.877 53.475 126.762 53.265C126.652 53.05 126.504 52.89 126.319 52.785C126.139 52.675 125.939 52.62 125.719 52.62C125.509 52.62 125.309 52.675 125.119 52.785C124.934 52.89 124.784 53.05 124.669 53.265C124.559 53.475 124.504 53.74 124.504 54.06C124.504 54.375 124.559 54.64 124.669 54.855C124.784 55.07 124.932 55.2325 125.112 55.3425C125.297 55.4475 125.497 55.5 125.712 55.5ZM129.389 55.95L128.279 52.17H128.909L129.771 55.3575H129.659L130.596 52.17H131.309L132.261 55.35L132.141 55.3575L132.996 52.17H133.634L132.531 55.95H131.886L130.896 52.62H131.024L130.034 55.95H129.389ZM136.162 56.04C135.807 56.04 135.492 55.9575 135.217 55.7925C134.947 55.6275 134.735 55.3975 134.58 55.1025C134.425 54.8025 134.347 54.455 134.347 54.06C134.347 53.66 134.422 53.3125 134.572 53.0175C134.727 52.7225 134.942 52.4925 135.217 52.3275C135.497 52.1625 135.817 52.08 136.177 52.08C136.547 52.08 136.86 52.1625 137.115 52.3275C137.375 52.4925 137.572 52.71 137.707 52.98C137.847 53.245 137.917 53.5375 137.917 53.8575C137.917 53.9075 137.917 53.96 137.917 54.015C137.917 54.07 137.915 54.1325 137.91 54.2025H134.82V53.715H137.302C137.287 53.37 137.172 53.1 136.957 52.905C136.747 52.71 136.482 52.6125 136.162 52.6125C135.947 52.6125 135.747 52.6625 135.562 52.7625C135.382 52.8575 135.237 53 135.127 53.19C135.017 53.375 134.962 53.6075 134.962 53.8875V54.0975C134.962 54.4075 135.017 54.6675 135.127 54.8775C135.242 55.0875 135.39 55.245 135.57 55.35C135.755 55.455 135.952 55.5075 136.162 55.5075C136.427 55.5075 136.645 55.45 136.815 55.335C136.99 55.215 137.115 55.055 137.19 54.855H137.812C137.752 55.08 137.647 55.2825 137.497 55.4625C137.347 55.6425 137.16 55.785 136.935 55.89C136.715 55.99 136.457 56.04 136.162 56.04ZM139.067 55.95V52.17H139.637L139.682 52.89C139.767 52.72 139.875 52.575 140.005 52.455C140.14 52.335 140.3 52.2425 140.485 52.1775C140.675 52.1125 140.89 52.08 141.13 52.08V52.74H140.897C140.737 52.74 140.585 52.7625 140.44 52.8075C140.295 52.8475 140.165 52.915 140.05 53.01C139.94 53.105 139.852 53.235 139.787 53.4C139.727 53.56 139.697 53.76 139.697 54V55.95H139.067ZM143.662 56.04C143.307 56.04 142.992 55.9575 142.717 55.7925C142.447 55.6275 142.234 55.3975 142.079 55.1025C141.924 54.8025 141.847 54.455 141.847 54.06C141.847 53.66 141.922 53.3125 142.072 53.0175C142.227 52.7225 142.442 52.4925 142.717 52.3275C142.997 52.1625 143.317 52.08 143.677 52.08C144.047 52.08 144.359 52.1625 144.614 52.3275C144.874 52.4925 145.072 52.71 145.207 52.98C145.347 53.245 145.417 53.5375 145.417 53.8575C145.417 53.9075 145.417 53.96 145.417 54.015C145.417 54.07 145.414 54.1325 145.409 54.2025H142.319V53.715H144.802C144.787 53.37 144.672 53.1 144.457 52.905C144.247 52.71 143.982 52.6125 143.662 52.6125C143.447 52.6125 143.247 52.6625 143.062 52.7625C142.882 52.8575 142.737 53 142.627 53.19C142.517 53.375 142.462 53.6075 142.462 53.8875V54.0975C142.462 54.4075 142.517 54.6675 142.627 54.8775C142.742 55.0875 142.889 55.245 143.069 55.35C143.254 55.455 143.452 55.5075 143.662 55.5075C143.927 55.5075 144.144 55.45 144.314 55.335C144.489 55.215 144.614 55.055 144.689 54.855H145.312C145.252 55.08 145.147 55.2825 144.997 55.4625C144.847 55.6425 144.659 55.785 144.434 55.89C144.214 55.99 143.957 56.04 143.662 56.04ZM148.232 56.04C147.867 56.04 147.547 55.955 147.272 55.785C146.997 55.61 146.784 55.3725 146.634 55.0725C146.484 54.7725 146.409 54.4325 146.409 54.0525C146.409 53.6725 146.484 53.335 146.634 53.04C146.784 52.74 146.997 52.505 147.272 52.335C147.552 52.165 147.874 52.08 148.239 52.08C148.549 52.08 148.819 52.1425 149.049 52.2675C149.284 52.3925 149.464 52.5675 149.589 52.7925V50.55H150.219V55.95H149.649L149.597 55.3275C149.517 55.4525 149.414 55.57 149.289 55.68C149.164 55.785 149.014 55.8725 148.839 55.9425C148.664 56.0075 148.462 56.04 148.232 56.04ZM148.307 55.4925C148.557 55.4925 148.777 55.4325 148.967 55.3125C149.157 55.1925 149.304 55.0275 149.409 54.8175C149.514 54.6025 149.567 54.35 149.567 54.06C149.567 53.775 149.514 53.525 149.409 53.31C149.304 53.095 149.157 52.9275 148.967 52.8075C148.777 52.6875 148.557 52.6275 148.307 52.6275C148.062 52.6275 147.844 52.6875 147.654 52.8075C147.464 52.9275 147.317 53.095 147.212 53.31C147.107 53.525 147.054 53.775 147.054 54.06C147.054 54.35 147.107 54.6025 147.212 54.8175C147.317 55.0275 147.464 55.1925 147.654 55.3125C147.844 55.4325 148.062 55.4925 148.307 55.4925ZM155.841 56.04C155.626 56.04 155.431 56.01 155.256 55.95C155.086 55.885 154.936 55.8 154.806 55.695C154.676 55.59 154.569 55.4675 154.484 55.3275L154.431 55.95H153.861V50.55H154.491V52.7925C154.611 52.5975 154.784 52.43 155.009 52.29C155.234 52.15 155.511 52.08 155.841 52.08C156.206 52.08 156.526 52.1675 156.801 52.3425C157.076 52.5125 157.289 52.7475 157.439 53.0475C157.594 53.3425 157.671 53.68 157.671 54.06C157.671 54.44 157.594 54.78 157.439 55.08C157.289 55.38 157.076 55.615 156.801 55.785C156.526 55.955 156.206 56.04 155.841 56.04ZM155.766 55.4925C156.011 55.4925 156.229 55.4325 156.419 55.3125C156.609 55.1925 156.756 55.0275 156.861 54.8175C156.971 54.6025 157.026 54.35 157.026 54.06C157.026 53.775 156.971 53.525 156.861 53.31C156.756 53.095 156.609 52.9275 156.419 52.8075C156.229 52.6875 156.011 52.6275 155.766 52.6275C155.516 52.6275 155.296 52.6875 155.106 52.8075C154.916 52.9275 154.769 53.095 154.664 53.31C154.559 53.525 154.506 53.775 154.506 54.06C154.506 54.35 154.559 54.6025 154.664 54.8175C154.769 55.0275 154.916 55.1925 155.106 55.3125C155.296 55.4325 155.516 55.4925 155.766 55.4925ZM158.968 57.6L159.891 55.53H159.673L158.188 52.17H158.871L160.101 55.0575L161.391 52.17H162.043L159.628 57.6H158.968Z" fill="black"/>
</svg>
